# AST/ASF file generated using VICON BodyLanguage
# -----------------------------------------------
:version 1.10
:name VICON
:units
  mass 1.0
  length 0.45
  angle deg
:documentation
   .ast/.asf automatically generated from VICON data using
   VICON BodyBuilder and BodyLanguage model FoxedUp or BRILLIANT.MOD
:root
   order TX TY TZ RX RY RZ
   axis XYZ
   position 0 0 0  
   orientation 0 0 0 
:bonedata
  begin
     id 1 
     name lhipjoint
     direction 0.522423 -0.726805 0.445902 
     length 2.25074 
     axis 0 0 0  XYZ
  end
  begin
     id 2 
     name lfemur
     direction 0.34202 -0.939693 0  
     length 6.54609  
     axis 0 0 20  XYZ
    dof rx ry rz
    limits (-160.0 20.0)
           (-70.0 70.0)
           (-60.0 70.0)
  end
  begin
     id 3 
     name ltibia
     direction 0.34202 -0.939693 0   
     length 7.7528   
     axis 0 0 20   XYZ
    dof rx
    limits (-10.0 170.0)
  end
  begin
     id 4 
     name lfoot
     direction 0.143696 -0.394801 0.90746   
     length 1.73269   
     axis -90 7.62852e-016 20   XYZ
    dof rx rz
    limits (-45.0 90.0)
           (-70.0 20.0)
  end
  begin
     id 5 
     name ltoes
     direction 1.53633e-011 -4.21912e-011 1   
     length 0.858383   
     axis -90 7.62852e-016 20   XYZ
    dof rx
    limits (-90.0 20.0)
  end
  begin
     id 6 
     name rhipjoint
     direction -0.515943 -0.73016 0.447961   
     length 2.2404  
     axis 0 0 0  XYZ 
  end
  begin
     id 7 
     name rfemur
     direction -0.34202 -0.939693 0   
     length 6.84377   
     axis 0 0 -20   XYZ
    dof rx ry rz
    limits (-160.0 20.0)
           (-70.0 70.0)
           (-70.0 60.0)
  end
  begin
     id 8 
     name rtibia
     direction -0.34202 -0.939693 0   
     length 7.57596   
     axis 0 0 -20   XYZ
    dof rx
    limits (-10.0 170.0)
 end
 begin
     id 9 
     name rfoot
     direction -0.0999372 -0.274575 0.956358   
     length 1.78783  
     axis -90 -7.62852e-016 -20   XYZ
    dof rx rz
    limits (-45.0 90.0)
           (-20.0 70.0)
  end
  begin
     id 10 
     name rtoes
     direction -1.53535e-011 -4.21895e-011 1   
     length 0.898614   
     axis -90 -7.62852e-016 -20   XYZ
    dof rx
    limits (-90.0 20.0)
  end
  begin
     id 11 
     name lowerback
     direction -0.011775 0.996164 -0.0867116   
     length 1.91499   
     axis 0 0 0   XYZ
    dof rx ry rz
    limits (-20.0 45.0)
           (-30.0 30.0)
           (-30.0 30.0)
  end
  begin
     id 12 
     name upperback
     direction -0.00189771 0.999673 -0.0254833   
     length 1.92213   
     axis 0 0 0   XYZ
    dof rx ry rz
    limits (-20.0 45.0)
           (-30.0 30.0)
           (-30.0 30.0)
  end
  begin
     id 13 
     name thorax
     direction 0.00335995 0.999878 0.0152401   
     length 1.93138   
     axis 0 0 0   XYZ
    dof rx ry rz
    limits (-20.0 45.0)
           (-30.0 30.0)
           (-30.0 30.0)
  end
  begin
     id 14 
     name lowerneck
     direction 0.00233191 0.998509 0.0545404   
     length 1.59408   
     axis 0 0 0   XYZ
    dof rx ry rz
    limits (-20.0 45.0)
           (-30.0 30.0)
           (-30.0 30.0)
  end
  begin
     id 15 
     name upperneck
     direction 0.07881 0.9956 -0.0506934   
     length 1.59344   
     axis 0 0 0   XYZ
    dof rx ry rz
    limits (-20.0 45.0)
           (-30.0 30.0)
           (-30.0 30.0)
  end
  begin
     id 16
     name head
     direction 0.0261681 0.999378 -0.0236299  
     length 1.60935  
     axis 0 0 0   XYZ
    dof rx ry rz
    limits (-20.0 45.0)
           (-30.0 30.0)
           (-30.0 30.0)
  end
  begin
     id 17 
     name lclavicle
     direction 0.96643 0.252035 0.0499195  
     length 3.82153  
     axis 0 0 0   XYZ
    dof ry rz
    limits (-20.0 10.0)
           (0.0 20.0)
  end
  begin
     id 18 
     name lhumerus
     direction 1 -4.48967e-011 -2.01614e-018   
     length 4.87796   
     axis 180 -30 -90   XYZ
    dof rx ry rz
    limits (-60.0 90.0)
           (-90.0 90.0)
           (-90.0 90.0)
  end
  begin
     id 19
     name lradius
     direction 1 -4.48958e-011 3.1409e-027   
     length 3.23169   
     axis 180 -30 -90   XYZ
    dof rx
    limits (-10.0 170.0)
  end
  begin
     id 20
     name lwrist
     direction 1 -4.48924e-011 1.0365e-027   
     length 1.61584   
     axis -2.56395e-016 90 90   XYZ
    dof ry
    limits (-180.0 0.0)
 end
  begin
     id 21 
     name lhand
     direction 1 -4.49055e-011 2.09488e-027   
     length 0.731324   
     axis -1.32723e-015 90 90   XYZ
    dof rx rz
    limits (-90.0 90.0)
           (-45.0 45.0)
  end
  begin
     id 22 
     name lfingers
     direction 1 -4.48935e-011 4.14981e-027   
     length 0.589612   
     axis -2.6545e-015 90 90   XYZ
    dof rx
    limits (0.0 90.0)
  end
  begin
     id 23
     name lthumb
     direction 0.707107 -6.35097e-011 0.707107   
     length 0.846569   
     axis -90 45 5.05613e-014   XYZ
    dof rx rz
    limits (-45.0 45.0)
           (-45.0 45.0)
  end
  begin
     id 24 
     name rclavicle
     direction -0.979337 0.201016 0.0221522   
     length 3.73827  
     axis 0 0 0   XYZ 
    dof ry rz
    limits (-10.0 20.0)
           (-20.0 0.0)
  end
  begin
     id 25 
     name rhumerus
     direction -1 -4.48971e-011 1.65907e-027  
     length 4.9143   
     axis 180 30 90   XYZ
    dof rx ry rz
    limits (-90.0 60.0)
           (-90.0 90.0)
           (-90.0 90.0)
  end
  begin
     id 26 
     name rradius
     direction -1 -4.4894e-011 2.17871e-028   
     length 3.29093   
     axis 180 30 90   XYZ
    dof rx
    limits (-10.0 170.0)
  end
  begin
     id 27 
     name rwrist
     direction -1 -4.48971e-011 1.04038e-027   
     length 1.64546   
     axis -2.56395e-016 -90 -90   XYZ
    dof ry
    limits (-180.0 0.0)
  end
  begin
     id 28
     name rhand
     direction -1 -4.49017e-011 2.08843e-027   
     length 0.54512   
     axis -1.32723e-015 -90 -90   XYZ
    dof rx rz
    limits (-90.0 90.0)
           (-45.0 45.0)
  end
  begin
     id 29
     name rfingers
     direction -1 -4.48918e-011 4.1439e-027   
     length 0.43949   
     axis -2.6545e-015 -90 -90   XYZ
    dof rx
    limits (0.0 90.0)
  end
  begin
     id 30
     name rthumb
     direction -0.707107 -6.35065e-011 0.707107   
     length 0.631022   
     axis -90 -45 -5.05613e-014   XYZ
    dof rx rz
    limits (-45.0 45.0)
           (-45.0 45.0)
  end
:hierarchy
  begin
    root lhipjoint rhipjoint lowerback
    lhipjoint lfemur
    lfemur ltibia
    ltibia lfoot
    lfoot ltoes
    rhipjoint rfemur
    rfemur rtibia
    rtibia rfoot
    rfoot rtoes
    lowerback upperback
    upperback thorax
    thorax lowerneck lclavicle rclavicle
    lowerneck upperneck
    upperneck head
    lclavicle lhumerus
    lhumerus lradius
    lradius lwrist
    lwrist lhand lthumb
    lhand lfingers
    rclavicle rhumerus
    rhumerus rradius
    rradius rwrist
    rwrist rhand rthumb
    rhand rfingers
  end

#!OML:ASF H:\BreakDance\Project 1\Capture day 1\Session 1\Male.ASF
:FULLY-SPECIFIED
:DEGREES
16
root 1.49383 14.289 -1.24234 -13.3813 -88.6479 11.4123
lowerback 9.01002 0.643017 -2.84699
upperback 3.59892 0.485082 -0.742683
thorax -1.33927 0.177864 0.785959
lowerneck -7.63297 -2.46746 -2.57359
upperneck 4.03436 -3.84384 11.0873
head 2.72377 -1.61599 3.59026
rclavicle 1.2424e-015 9.14409e-015
rhumerus 18.1498 3.72443 -78.5444
rradius 90.55
rwrist 7.40539
rhand -1.70554 -53.2401
rfingers 7.12502
rthumb 23.9558 -81.7656
lclavicle 1.2424e-015 9.14409e-015
lhumerus 25.395 -7.92009 79.1492
lradius 83.4569
lwrist -28.2939
lhand 13.9395 -15.7135
lfingers 7.12502
lthumb 38.8525 9.84863
rfemur -37.0051 -21.3574 4.11796
rtibia 69.9229
rfoot -27.0766 1.60455
rtoes -17.1791
lfemur -39.7042 21.0162 -7.68143
ltibia 72.0286
lfoot -30.3593 -4.06875
ltoes -16.4539
17
root 1.48885 14.2893 -1.24948 6.54495 -88.7541 -8.63912
lowerback 9.06236 0.658572 -2.48868
upperback 3.64264 0.53768 -0.593499
thorax -1.32337 0.205057 0.733301
lowerneck -7.63111 -2.47182 -2.57413
upperneck 4.04765 -3.84966 11.0744
head 2.72752 -1.61881 3.58608
rclavicle -9.93923e-017 -1.15295e-014
rhumerus 18.1297 3.76482 -78.4663
rradius 90.5041
rwrist 7.37965
rhand -1.6724 -53.1879
rfingers 7.12502
rthumb 23.9876 -81.7092
lclavicle -9.93923e-017 -1.15295e-014
lhumerus 25.4048 -7.9063 79.1258
lradius 83.4314
lwrist -28.412
lhand 14.1408 -15.49
lfingers 7.12502
lthumb 39.0423 10.0179
rfemur -36.877 -21.058 4.67482
rtibia 69.9021
rfoot -27.1106 1.29755
rtoes -17.4774
lfemur -39.5502 21.2093 -7.03768
ltibia 72.0441
lfoot -30.3333 -4.18926
ltoes -16.6208
18
root 1.491 14.2917 -1.24112 -11.1522 -88.6099 9.17966
lowerback 9.06375 0.634477 -2.73951
upperback 3.55715 0.481148 -0.749333
thorax -1.41117 0.178428 0.718648
lowerneck -7.51803 -2.44952 -2.62314
upperneck 4.01185 -3.81941 11.1762
head 2.69923 -1.60636 3.62789
rclavicle -5.96354e-016 7.15625e-015
rhumerus 18.0318 3.77268 -78.3989
rradius 90.4559
rwrist 7.27866
rhand -1.74356 -53.0739
rfingers 7.12502
rthumb 23.9193 -81.6041
lclavicle -5.96354e-016 7.15625e-015
lhumerus 25.3324 -7.9929 79.0962
lradius 83.4338
lwrist -28.501
lhand 14.353 -15.2492
lfingers 7.12502
lthumb 39.2423 10.201
rfemur -36.9438 -21.3595 4.16925
rtibia 69.8919
rfoot -27.1124 1.31039
rtoes -17.9761
lfemur -39.7062 20.9769 -7.64905
ltibia 72.0299
lfoot -30.4727 -3.90471
ltoes -16.9992
19
root 1.49155 14.2944 -1.23888 -14.4913 -88.506 12.5354
lowerback 9.1286 0.624587 -2.77165
upperback 3.53132 0.461713 -0.785453
thorax -1.47286 0.169717 0.700854
lowerneck -7.36333 -2.41093 -2.74638
upperneck 3.86124 -3.75082 11.3123
head 2.62914 -1.57988 3.69487
rclavicle 7.60351e-015 -8.34896e-015
rhumerus 18.0033 3.78298 -78.3104
rradius 90.4321
rwrist 7.13783
rhand -1.75094 -53.0731
rfingers 7.12502
rthumb 23.9123 -81.6043
lclavicle 7.60351e-015 -8.34896e-015
lhumerus 25.3041 -8.06537 79.1054
lradius 83.3655
lwrist -28.5437
lhand 14.3067 -15.2569
lfingers 7.12502
lthumb 39.1987 10.2059
rfemur -36.8961 -21.4438 4.02775
rtibia 69.8621
rfoot -27.1163 1.23233
rtoes -18.2221
lfemur -39.7434 20.8731 -7.81921
ltibia 72.0119
lfoot -30.6679 -3.7408
ltoes -18.0846
20
root 1.49084 14.2968 -1.2392 -10.8735 -88.4948 8.88223
lowerback 9.13175 0.614755 -2.67714
upperback 3.57325 0.457339 -0.748251
thorax -1.43079 0.166662 0.686795
lowerneck -7.20636 -2.3759 -2.87801
upperneck 3.6577 -3.67968 11.4302
head 2.54238 -1.55452 3.75783
rclavicle 3.77691e-015 -1.43125e-014
rhumerus 18.0369 3.83453 -78.2234
rradius 90.4527
rwrist 7.01614
rhand -1.79925 -53.1775
rfingers 7.12502
rthumb 23.8659 -81.7147
lclavicle 3.77691e-015 -1.43125e-014
lhumerus 25.3112 -8.044 79.1205
lradius 83.2761
lwrist -28.6203
lhand 14.1912 -15.3551
lfingers 7.12502
lthumb 39.0898 10.1391
rfemur -36.8202 -21.4082 4.11152
rtibia 69.8255
rfoot -27.1195 1.2268
rtoes -18.1606
lfemur -39.6988 20.8521 -7.70512
ltibia 71.9886
lfoot -30.7302 -3.74282
ltoes -18.6202
21
root 1.49021 14.2976 -1.23951 -7.22356 -88.4837 5.23688
lowerback 9.04655 0.600483 -2.57809
upperback 3.6294 0.450353 -0.730222
thorax -1.32516 0.161724 0.651262
lowerneck -7.13297 -2.32515 -2.94499
upperneck 3.5317 -3.60159 11.5426
head 2.49068 -1.52031 3.80785
rclavicle 8.49804e-015 -7.95139e-016
rhumerus 18.1139 3.87766 -78.1605
rradius 90.4715
rwrist 6.87575
rhand -1.85441 -53.1869
rfingers 7.12502
rthumb 23.813 -81.731
lclavicle 8.49804e-015 -7.95139e-016
lhumerus 25.3279 -7.99058 79.0982
lradius 83.223
lwrist -28.6715
lhand 14.0367 -15.5745
lfingers 7.12502
lthumb 38.9442 9.96155
rfemur -36.7857 -21.3969 4.20164
rtibia 69.7836
rfoot -27.1269 1.31958
rtoes -17.984
lfemur -39.713 20.8532 -7.59959
ltibia 71.9917
lfoot -30.6859 -3.78041
ltoes -18.5979
22
root 1.48921 14.2985 -1.24271 -3.82317 -88.4654 1.82485
lowerback 8.97423 0.595985 -2.5475
upperback 3.70009 0.450366 -0.677096
thorax -1.2125 0.159232 0.689606
lowerneck -7.20224 -2.29704 -2.9955
upperneck 3.50967 -3.55883 11.5759
head 2.49402 -1.49736 3.82794
rclavicle 1.1281e-014 -2.38542e-015
rhumerus 18.1875 3.9053 -78.0817
rradius 90.4778
rwrist 6.77954
rhand -1.9122 -53.1268
rfingers 7.12502
rthumb 23.7576 -81.6781
lclavicle 1.1281e-014 -2.38542e-015
lhumerus 25.3734 -7.94177 79.1323
lradius 83.1969
lwrist -28.7109
lhand 13.9964 -15.8216
lfingers 7.12502
lthumb 38.9061 9.72527
rfemur -36.767 -21.3506 4.31149
rtibia 69.7461
rfoot -27.0821 1.28957
rtoes -17.9263
lfemur -39.7166 20.8786 -7.47967
ltibia 71.9938
lfoot -30.6075 -3.69603
ltoes -18.7837
23
root 1.48706 14.2998 -1.24741 4.63819 -88.5006 -6.71496
lowerback 8.97947 0.603382 -2.40796
upperback 3.75882 0.473169 -0.580214
thorax -1.15523 0.169478 0.709137
lowerneck -7.15295 -2.2775 -3.10374
upperneck 3.47518 -3.52219 11.6354
head 2.47589 -1.48137 3.86632
rclavicle -1.2921e-015 1.27222e-014
rhumerus 18.2052 3.96686 -78.0397
rradius 90.4662
rwrist 6.77954
rhand -1.96349 -53.1615
rfingers 7.12502
rthumb 23.7084 -81.7192
lclavicle -1.2921e-015 1.27222e-014
lhumerus 25.3417 -7.91065 79.1669
lradius 83.2085
lwrist -28.7503
lhand 14.13 -15.803
lfingers 7.12502
lthumb 39.0321 9.70778
rfemur -36.7307 -21.1952 4.60396
rtibia 69.7283
rfoot -27.0379 1.0348
rtoes -18.3107
lfemur -39.6194 20.9749 -7.15393
ltibia 71.9811
lfoot -30.527 -3.66244
ltoes -18.6276
24
root 1.48513 14.2982 -1.24847 10.1877 -88.5142 -12.3411
lowerback 9.00787 0.60816 -2.26856
upperback 3.79625 0.490176 -0.546017
thorax -1.13199 0.177859 0.664424
lowerneck -7.17145 -2.28021 -3.06449
upperneck 3.59364 -3.53266 11.536
head 2.51201 -1.48388 3.82867
rclavicle -3.13086e-015 1.11319e-014
rhumerus 18.2011 4.01419 -78.0302
rradius 90.4321
rwrist 6.79913
rhand -1.97303 -53.1556
rfingers 7.12502
rthumb 23.6993 -81.7145
lclavicle -3.13086e-015 1.11319e-014
lhumerus 25.3148 -7.89875 79.1451
lradius 83.197
lwrist -28.7849
lhand 14.2548 -15.6867
lfingers 7.12502
lthumb 39.1497 9.79024
rfemur -36.6341 -21.0924 4.75572
rtibia 69.7446
rfoot -27.0925 0.983259
rtoes -18.251
lfemur -39.5267 21.0323 -6.94027
ltibia 71.9862
lfoot -30.5372 -3.72873
ltoes -18.3503
25
root 1.48464 14.2953 -1.24721 8.3338 -88.5001 -10.5078
lowerback 9.0185 0.605854 -2.27841
upperback 3.81123 0.48515 -0.562458
thorax -1.12214 0.174842 0.653476
lowerneck -7.3111 -2.3061 -2.92824
upperneck 3.78472 -3.57961 11.296
head 2.58784 -1.50083 3.72914
rclavicle 5.81445e-015 1.59028e-014
rhumerus 18.1801 4.03097 -78.0074
rradius 90.4329
rwrist 6.7773
rhand -1.9724 -53.0891
rfingers 7.12502
rthumb 23.6999 -81.6479
lclavicle 5.81445e-015 1.59028e-014
lhumerus 25.335 -7.86556 79.1629
lradius 83.1181
lwrist -28.8479
lhand 14.5547 -15.6673
lfingers 7.12502
lthumb 39.4323 9.72748
rfemur -36.5666 -21.0741 4.6635
rtibia 69.7758
rfoot -27.1519 1.12163
rtoes -17.7063
lfemur -39.5148 21.0066 -6.98806
ltibia 72.0109
lfoot -30.5188 -3.75109
ltoes -18.3133
26
root 1.48492 14.2927 -1.24703 5.35332 -88.4842 -7.53881
lowerback 9.06075 0.602216 -2.35833
upperback 3.79695 0.472262 -0.561604
thorax -1.1603 0.168236 0.700176
lowerneck -7.3588 -2.30827 -2.90526
upperneck 3.91289 -3.5852 11.1648
head 2.63091 -1.50082 3.6845
rclavicle 2.73329e-015 4.77083e-015
rhumerus 18.17 4.08562 -77.9749
rradius 90.4415
rwrist 6.7484
rhand -1.94803 -53.0612
rfingers 7.12502
rthumb 23.7232 -81.617
lclavicle 2.73329e-015 4.77083e-015
lhumerus 25.2814 -7.82731 79.205
lradius 83.068
lwrist -28.8166
lhand 14.8409 -15.6222
lfingers 7.12502
lthumb 39.7019 9.69312
rfemur -36.5406 -21.057 4.56011
rtibia 69.7999
rfoot -27.1853 1.0902
rtoes -17.7373
lfemur -39.5002 20.9656 -7.06764
ltibia 72.0349
lfoot -30.3959 -3.80182
ltoes -17.9755
27
root 1.48539 14.2915 -1.24638 3.28784 -88.4674 -5.48947
lowerback 9.07635 0.590753 -2.42855
upperback 3.80749 0.450699 -0.545036
thorax -1.15788 0.156445 0.758774
lowerneck -7.43051 -2.27962 -2.91141
upperneck 4.03626 -3.54671 11.0498
head 2.67421 -1.47845 3.65166
rclavicle 5.41688e-015 -1.07344e-014
rhumerus 18.2357 4.16748 -77.9332
rradius 90.4097
rwrist 6.73393
rhand -1.78477 -52.944
rfingers 7.12502
rthumb 23.8798 -81.4795
lclavicle 5.41688e-015 -1.07344e-014
lhumerus 25.2353 -7.76937 79.2459
lradius 83.0096
lwrist -28.7459
lhand 14.8801 -15.5419
lfingers 7.12502
lthumb 39.7388 9.76238
rfemur -36.5091 -21.071 4.48629
rtibia 69.8068
rfoot -27.1963 0.99057
rtoes -17.9895
lfemur -39.4934 20.9155 -7.12783
ltibia 72.0527
lfoot -30.2971 -3.83151
ltoes -17.6545
28
root 1.48586 14.2913 -1.24507 1.51427 -88.4491 -3.71909
lowerback 9.08567 0.589126 -2.4434
upperback 3.81068 0.446261 -0.567684
thorax -1.15949 0.154091 0.744136
lowerneck -7.38639 -2.2359 -2.89605
upperneck 4.01777 -3.48348 11.0017
head 2.65554 -1.44994 3.63798
rclavicle 5.01931e-015 -1.35174e-014
rhumerus 18.2173 4.17422 -77.9212
rradius 90.4085
rwrist 6.70193
rhand -1.53624 -52.8548
rfingers 7.12502
rthumb 24.1181 -81.3588
lclavicle 5.01931e-015 -1.35174e-014
lhumerus 25.2132 -7.76138 79.264
lradius 82.936
lwrist -28.7375
lhand 14.9503 -15.4631
lfingers 7.12502
lthumb 39.8048 9.82153
rfemur -36.5141 -21.0992 4.42058
rtibia 69.8009
rfoot -27.1517 0.99262
rtoes -18.0242
lfemur -39.5148 20.8811 -7.1942
ltibia 72.063
lfoot -30.2899 -3.96519
ltoes -17.3652
29
root 1.48595 14.2879 -1.24608 3.7704 -88.4554 -5.98844
lowerback 9.15349 0.592426 -2.36137
upperback 3.76144 0.455622 -0.580352
thorax -1.24739 0.161362 0.683496
lowerneck -7.27128 -2.1987 -2.82269
upperneck 4.03673 -3.44082 10.9725
head 2.63726 -1.43157 3.61992
rclavicle -1.09332e-015 -3.18055e-015
rhumerus 18.0844 4.17471 -77.9677
rradius 90.4309
rwrist 6.67919
rhand -1.34619 -52.864
rfingers 7.12502
rthumb 24.3003 -81.3438
lclavicle -1.09332e-015 -3.18055e-015
lhumerus 25.113 -7.80798 79.2247
lradius 82.9542
lwrist -28.6717
lhand 15.2272 -15.1855
lfingers 7.12502
lthumb 40.0655 10.0207
rfemur -36.525 -21.0423 4.49474
rtibia 69.8096
rfoot -27.131 1.00187
rtoes -18.0254
lfemur -39.5178 20.9229 -7.1033
ltibia 72.0856
lfoot -30.3153 -4.18522
ltoes -16.9208
30
root 1.48718 14.2861 -1.24859 5.52292 -88.47 -7.76989
lowerback 9.2504 0.588135 -2.32417
upperback 3.72587 0.450036 -0.580488
thorax -1.33705 0.160236 0.662318
lowerneck -7.28484 -2.16291 -2.75447
upperneck 4.15699 -3.40591 10.9127
head 2.67046 -1.41089 3.59195
rclavicle -9.29318e-015 -1.43125e-014
rhumerus 18.0422 4.21791 -78.0263
rradius 90.4072
rwrist 6.63882
rhand -1.30129 -52.8594
rfingers 7.12502
rthumb 24.3434 -81.3334
lclavicle -9.29318e-015 -1.43125e-014
lhumerus 25.0085 -7.80964 79.2068
lradius 82.9829
lwrist -28.6223
lhand 15.5002 -14.8203
lfingers 7.12502
lthumb 40.3223 10.3077
rfemur -36.5034 -20.9619 4.56429
rtibia 69.8306
rfoot -27.1719 0.912402
rtoes -18.2148
lfemur -39.509 20.9671 -7.02228
ltibia 72.0899
lfoot -30.3552 -4.03451
ltoes -17.326
